<svg height="3726" width="720" xmlns="http://www.w3.org/2000/svg">
<rect height="3726" fill="#555" width="720"></rect>
<text fill="#7f7" font-family="Courier New" font-size="12" xml:space="preserve">
<tspan x="10" y="26">32 megabytes installed</tspan>
<tspan x="10" y="42"></tspan>
<tspan x="10" y="58">node_modules</tspan>
<tspan x="10" y="74">└─┬ extendscriptr@1.1.1 </tspan>
<tspan x="10" y="90">  ├── babel@6.23.0 </tspan>
<tspan x="10" y="106">  ├─┬ babel-plugin-transform-es3-member-expression-literals@6.22.0 </tspan>
<tspan x="10" y="122">  │ └─┬ babel-runtime@6.23.0 </tspan>
<tspan x="10" y="138">  │   ├── core-js@2.4.1 </tspan>
<tspan x="10" y="154">  │   └── regenerator-runtime@0.10.3 </tspan>
<tspan x="10" y="170">  ├── babel-plugin-transform-es3-property-literals@6.22.0 </tspan>
<tspan x="10" y="186">  ├─┬ babel-plugin-transform-es5-property-mutators@6.24.1 </tspan>
<tspan x="10" y="202">  │ └─┬ babel-helper-define-map@6.24.1 </tspan>
<tspan x="10" y="218">  │   ├── babel-helper-function-name@6.24.1 </tspan>
<tspan x="10" y="234">  │   ├─┬ babel-types@6.24.1 </tspan>
<tspan x="10" y="250">  │   │ ├── esutils@2.0.2 </tspan>
<tspan x="10" y="266">  │   │ └── to-fast-properties@1.0.2 </tspan>
<tspan x="10" y="282">  │   └── lodash@4.17.4 </tspan>
<tspan x="10" y="298">  ├─┬ babel-preset-es2015@6.24.1 </tspan>
<tspan x="10" y="314">  │ ├── babel-plugin-check-es2015-constants@6.22.0 </tspan>
<tspan x="10" y="330">  │ ├── babel-plugin-transform-es2015-arrow-functions@6.22.0 </tspan>
<tspan x="10" y="346">  │ ├── babel-plugin-transform-es2015-block-scoped-functions@6.22.0 </tspan>
<tspan x="10" y="362">  │ ├─┬ babel-plugin-transform-es2015-block-scoping@6.24.1 </tspan>
<tspan x="10" y="378">  │ │ ├── babel-template@6.24.1 </tspan>
<tspan x="10" y="394">  │ │ └─┬ babel-traverse@6.24.1 </tspan>
<tspan x="10" y="410">  │ │   ├── globals@9.17.0 </tspan>
<tspan x="10" y="426">  │ │   └─┬ invariant@2.2.2 </tspan>
<tspan x="10" y="442">  │ │     └── loose-envify@1.3.1 </tspan>
<tspan x="10" y="458">  │ ├─┬ babel-plugin-transform-es2015-classes@6.24.1 </tspan>
<tspan x="10" y="474">  │ │ ├── babel-helper-optimise-call-expression@6.24.1 </tspan>
<tspan x="10" y="490">  │ │ ├── babel-helper-replace-supers@6.24.1 </tspan>
<tspan x="10" y="506">  │ │ └── babel-messages@6.23.0 </tspan>
<tspan x="10" y="522">  │ ├── babel-plugin-transform-es2015-computed-properties@6.24.1 </tspan>
<tspan x="10" y="538">  │ ├── babel-plugin-transform-es2015-destructuring@6.23.0 </tspan>
<tspan x="10" y="554">  │ ├── babel-plugin-transform-es2015-duplicate-keys@6.24.1 </tspan>
<tspan x="10" y="570">  │ ├── babel-plugin-transform-es2015-for-of@6.23.0 </tspan>
<tspan x="10" y="586">  │ ├── babel-plugin-transform-es2015-function-name@6.24.1 </tspan>
<tspan x="10" y="602">  │ ├── babel-plugin-transform-es2015-literals@6.22.0 </tspan>
<tspan x="10" y="618">  │ ├── babel-plugin-transform-es2015-modules-amd@6.24.1 </tspan>
<tspan x="10" y="634">  │ ├─┬ babel-plugin-transform-es2015-modules-commonjs@6.24.1 </tspan>
<tspan x="10" y="650">  │ │ └── babel-plugin-transform-strict-mode@6.24.1 </tspan>
<tspan x="10" y="666">  │ ├─┬ babel-plugin-transform-es2015-modules-systemjs@6.24.1 </tspan>
<tspan x="10" y="682">  │ │ └── babel-helper-hoist-variables@6.24.1 </tspan>
<tspan x="10" y="698">  │ ├── babel-plugin-transform-es2015-modules-umd@6.24.1 </tspan>
<tspan x="10" y="714">  │ ├── babel-plugin-transform-es2015-object-super@6.24.1 </tspan>
<tspan x="10" y="730">  │ ├─┬ babel-plugin-transform-es2015-parameters@6.24.1 </tspan>
<tspan x="10" y="746">  │ │ ├── babel-helper-call-delegate@6.24.1 </tspan>
<tspan x="10" y="762">  │ │ └── babel-helper-get-function-arity@6.24.1 </tspan>
<tspan x="10" y="778">  │ ├── babel-plugin-transform-es2015-shorthand-properties@6.24.1 </tspan>
<tspan x="10" y="794">  │ ├── babel-plugin-transform-es2015-spread@6.22.0 </tspan>
<tspan x="10" y="810">  │ ├─┬ babel-plugin-transform-es2015-sticky-regex@6.24.1 </tspan>
<tspan x="10" y="826">  │ │ └── babel-helper-regex@6.24.1 </tspan>
<tspan x="10" y="842">  │ ├── babel-plugin-transform-es2015-template-literals@6.22.0 </tspan>
<tspan x="10" y="858">  │ ├── babel-plugin-transform-es2015-typeof-symbol@6.23.0 </tspan>
<tspan x="10" y="874">  │ ├─┬ babel-plugin-transform-es2015-unicode-regex@6.24.1 </tspan>
<tspan x="10" y="890">  │ │ └─┬ regexpu-core@2.0.0 </tspan>
<tspan x="10" y="906">  │ │   ├── regenerate@1.3.2 </tspan>
<tspan x="10" y="922">  │ │   ├── regjsgen@0.2.0 </tspan>
<tspan x="10" y="938">  │ │   └─┬ regjsparser@0.1.5 </tspan>
<tspan x="10" y="954">  │ │     └── jsesc@0.5.0 </tspan>
<tspan x="10" y="970">  │ └─┬ babel-plugin-transform-regenerator@6.24.1 </tspan>
<tspan x="10" y="986">  │   └── regenerator-transform@0.9.11 </tspan>
<tspan x="10" y="1002">  ├─┬ babelify@7.3.0 </tspan>
<tspan x="10" y="1018">  │ ├─┬ babel-core@6.24.1 </tspan>
<tspan x="10" y="1034">  │ │ ├─┬ babel-code-frame@6.22.0 </tspan>
<tspan x="10" y="1050">  │ │ │ ├─┬ chalk@1.1.3 </tspan>
<tspan x="10" y="1066">  │ │ │ │ ├── ansi-styles@2.2.1 </tspan>
<tspan x="10" y="1082">  │ │ │ │ ├── escape-string-regexp@1.0.5 </tspan>
<tspan x="10" y="1098">  │ │ │ │ ├─┬ has-ansi@2.0.0 </tspan>
<tspan x="10" y="1114">  │ │ │ │ │ └── ansi-regex@2.1.1 </tspan>
<tspan x="10" y="1130">  │ │ │ │ ├── strip-ansi@3.0.1 </tspan>
<tspan x="10" y="1146">  │ │ │ │ └── supports-color@2.0.0 </tspan>
<tspan x="10" y="1162">  │ │ │ └── js-tokens@3.0.1 </tspan>
<tspan x="10" y="1178">  │ │ ├─┬ babel-generator@6.24.1 </tspan>
<tspan x="10" y="1194">  │ │ │ ├─┬ detect-indent@4.0.0 </tspan>
<tspan x="10" y="1210">  │ │ │ │ └─┬ repeating@2.0.1 </tspan>
<tspan x="10" y="1226">  │ │ │ │   └─┬ is-finite@1.0.2 </tspan>
<tspan x="10" y="1242">  │ │ │ │     └── number-is-nan@1.0.1 </tspan>
<tspan x="10" y="1258">  │ │ │ ├── jsesc@1.3.0 </tspan>
<tspan x="10" y="1274">  │ │ │ └── trim-right@1.0.1 </tspan>
<tspan x="10" y="1290">  │ │ ├── babel-helpers@6.24.1 </tspan>
<tspan x="10" y="1306">  │ │ ├─┬ babel-register@6.24.1 </tspan>
<tspan x="10" y="1322">  │ │ │ ├─┬ home-or-tmp@2.0.0 </tspan>
<tspan x="10" y="1338">  │ │ │ │ ├── os-homedir@1.0.2 </tspan>
<tspan x="10" y="1354">  │ │ │ │ └── os-tmpdir@1.0.2 </tspan>
<tspan x="10" y="1370">  │ │ │ ├─┬ mkdirp@0.5.1 </tspan>
<tspan x="10" y="1386">  │ │ │ │ └── minimist@0.0.8 </tspan>
<tspan x="10" y="1402">  │ │ │ └── source-map-support@0.4.14 </tspan>
<tspan x="10" y="1418">  │ │ ├── babylon@6.17.0 </tspan>
<tspan x="10" y="1434">  │ │ ├── convert-source-map@1.5.0 </tspan>
<tspan x="10" y="1450">  │ │ ├─┬ debug@2.6.4 </tspan>
<tspan x="10" y="1466">  │ │ │ └── ms@0.7.3 </tspan>
<tspan x="10" y="1482">  │ │ ├── json5@0.5.1 </tspan>
<tspan x="10" y="1498">  │ │ ├─┬ minimatch@3.0.3 </tspan>
<tspan x="10" y="1514">  │ │ │ └─┬ brace-expansion@1.1.7 </tspan>
<tspan x="10" y="1530">  │ │ │   ├── balanced-match@0.4.2 </tspan>
<tspan x="10" y="1546">  │ │ │   └── concat-map@0.0.1 </tspan>
<tspan x="10" y="1562">  │ │ ├── path-is-absolute@1.0.1 </tspan>
<tspan x="10" y="1578">  │ │ ├── private@0.1.7 </tspan>
<tspan x="10" y="1594">  │ │ ├── slash@1.0.0 </tspan>
<tspan x="10" y="1610">  │ │ └── source-map@0.5.6 </tspan>
<tspan x="10" y="1626">  │ └── object-assign@4.1.1 </tspan>
<tspan x="10" y="1642">  ├─┬ browserify@13.3.0 </tspan>
<tspan x="10" y="1658">  │ ├── assert@1.4.1 </tspan>
<tspan x="10" y="1674">  │ ├─┬ browser-pack@6.0.2 </tspan>
<tspan x="10" y="1690">  │ │ ├─┬ combine-source-map@0.7.2 </tspan>
<tspan x="10" y="1706">  │ │ │ ├── convert-source-map@1.1.3 </tspan>
<tspan x="10" y="1722">  │ │ │ ├── inline-source-map@0.6.2 </tspan>
<tspan x="10" y="1738">  │ │ │ └── lodash.memoize@3.0.4 </tspan>
<tspan x="10" y="1754">  │ │ └── umd@3.0.1 </tspan>
<tspan x="10" y="1770">  │ ├─┬ browser-resolve@1.11.2 </tspan>
<tspan x="10" y="1786">  │ │ └── resolve@1.1.7 </tspan>
<tspan x="10" y="1802">  │ ├─┬ browserify-zlib@0.1.4 </tspan>
<tspan x="10" y="1818">  │ │ └── pako@0.2.9 </tspan>
<tspan x="10" y="1834">  │ ├─┬ buffer@4.9.1 </tspan>
<tspan x="10" y="1850">  │ │ ├── base64-js@1.2.0 </tspan>
<tspan x="10" y="1866">  │ │ ├── ieee754@1.1.8 </tspan>
<tspan x="10" y="1882">  │ │ └── isarray@1.0.0 </tspan>
<tspan x="10" y="1898">  │ ├── cached-path-relative@1.0.1 </tspan>
<tspan x="10" y="1914">  │ ├─┬ concat-stream@1.5.2 </tspan>
<tspan x="10" y="1930">  │ │ ├── readable-stream@2.0.6 </tspan>
<tspan x="10" y="1946">  │ │ └── typedarray@0.0.6 </tspan>
<tspan x="10" y="1962">  │ ├─┬ console-browserify@1.1.0 </tspan>
<tspan x="10" y="1978">  │ │ └── date-now@0.1.4 </tspan>
<tspan x="10" y="1994">  │ ├── constants-browserify@1.0.0 </tspan>
<tspan x="10" y="2010">  │ ├─┬ crypto-browserify@3.11.0 </tspan>
<tspan x="10" y="2026">  │ │ ├─┬ browserify-cipher@1.0.0 </tspan>
<tspan x="10" y="2042">  │ │ │ ├─┬ browserify-aes@1.0.6 </tspan>
<tspan x="10" y="2058">  │ │ │ │ └── buffer-xor@1.0.3 </tspan>
<tspan x="10" y="2074">  │ │ │ ├─┬ browserify-des@1.0.0 </tspan>
<tspan x="10" y="2090">  │ │ │ │ └── des.js@1.0.0 </tspan>
<tspan x="10" y="2106">  │ │ │ └── evp_bytestokey@1.0.0 </tspan>
<tspan x="10" y="2122">  │ │ ├─┬ browserify-sign@4.0.4 </tspan>
<tspan x="10" y="2138">  │ │ │ ├── bn.js@4.11.6 </tspan>
<tspan x="10" y="2154">  │ │ │ ├── browserify-rsa@4.0.1 </tspan>
<tspan x="10" y="2170">  │ │ │ ├─┬ elliptic@6.4.0 </tspan>
<tspan x="10" y="2186">  │ │ │ │ ├── brorand@1.1.0 </tspan>
<tspan x="10" y="2202">  │ │ │ │ ├── hash.js@1.0.3 </tspan>
<tspan x="10" y="2218">  │ │ │ │ ├── hmac-drbg@1.0.1 </tspan>
<tspan x="10" y="2234">  │ │ │ │ ├── minimalistic-assert@1.0.0 </tspan>
<tspan x="10" y="2250">  │ │ │ │ └── minimalistic-crypto-utils@1.0.1 </tspan>
<tspan x="10" y="2266">  │ │ │ └─┬ parse-asn1@5.1.0 </tspan>
<tspan x="10" y="2282">  │ │ │   └── asn1.js@4.9.1 </tspan>
<tspan x="10" y="2298">  │ │ ├── create-ecdh@4.0.0 </tspan>
<tspan x="10" y="2314">  │ │ ├─┬ create-hash@1.1.2 </tspan>
<tspan x="10" y="2330">  │ │ │ ├── cipher-base@1.0.3 </tspan>
<tspan x="10" y="2346">  │ │ │ └── ripemd160@1.0.1 </tspan>
<tspan x="10" y="2362">  │ │ ├── create-hmac@1.1.4 </tspan>
<tspan x="10" y="2378">  │ │ ├─┬ diffie-hellman@5.0.2 </tspan>
<tspan x="10" y="2394">  │ │ │ └── miller-rabin@4.0.0 </tspan>
<tspan x="10" y="2410">  │ │ ├── pbkdf2@3.0.9 </tspan>
<tspan x="10" y="2426">  │ │ ├── public-encrypt@4.0.0 </tspan>
<tspan x="10" y="2442">  │ │ └── randombytes@2.0.3 </tspan>
<tspan x="10" y="2458">  │ ├── defined@1.0.0 </tspan>
<tspan x="10" y="2474">  │ ├── deps-sort@2.0.0 </tspan>
<tspan x="10" y="2490">  │ ├── domain-browser@1.1.7 </tspan>
<tspan x="10" y="2506">  │ ├── duplexer2@0.1.4 </tspan>
<tspan x="10" y="2522">  │ ├── events@1.1.1 </tspan>
<tspan x="10" y="2538">  │ ├─┬ glob@7.1.1 </tspan>
<tspan x="10" y="2554">  │ │ ├── fs.realpath@1.0.0 </tspan>
<tspan x="10" y="2570">  │ │ ├─┬ inflight@1.0.6 </tspan>
<tspan x="10" y="2586">  │ │ │ └── wrappy@1.0.2 </tspan>
<tspan x="10" y="2602">  │ │ └── once@1.4.0 </tspan>
<tspan x="10" y="2618">  │ ├─┬ has@1.0.1 </tspan>
<tspan x="10" y="2634">  │ │ └── function-bind@1.1.0 </tspan>
<tspan x="10" y="2650">  │ ├── htmlescape@1.1.1 </tspan>
<tspan x="10" y="2666">  │ ├── https-browserify@0.0.1 </tspan>
<tspan x="10" y="2682">  │ ├── inherits@2.0.3 </tspan>
<tspan x="10" y="2698">  │ ├─┬ insert-module-globals@7.0.1 </tspan>
<tspan x="10" y="2714">  │ │ ├── is-buffer@1.1.5 </tspan>
<tspan x="10" y="2730">  │ │ └─┬ lexical-scope@1.2.0 </tspan>
<tspan x="10" y="2746">  │ │   └── astw@2.2.0 </tspan>
<tspan x="10" y="2762">  │ ├─┬ JSONStream@1.3.1 </tspan>
<tspan x="10" y="2778">  │ │ ├── jsonparse@1.3.0 </tspan>
<tspan x="10" y="2794">  │ │ └── through@2.3.8 </tspan>
<tspan x="10" y="2810">  │ ├─┬ labeled-stream-splicer@2.0.0 </tspan>
<tspan x="10" y="2826">  │ │ ├── isarray@0.0.1 </tspan>
<tspan x="10" y="2842">  │ │ └── stream-splicer@2.0.0 </tspan>
<tspan x="10" y="2858">  │ ├─┬ module-deps@4.1.1 </tspan>
<tspan x="10" y="2874">  │ │ ├── detective@4.5.0 </tspan>
<tspan x="10" y="2890">  │ │ └── stream-combiner2@1.1.1 </tspan>
<tspan x="10" y="2906">  │ ├── os-browserify@0.1.2 </tspan>
<tspan x="10" y="2922">  │ ├─┬ parents@1.0.1 </tspan>
<tspan x="10" y="2938">  │ │ └── path-platform@0.11.15 </tspan>
<tspan x="10" y="2954">  │ ├── path-browserify@0.0.0 </tspan>
<tspan x="10" y="2970">  │ ├── process@0.11.9 </tspan>
<tspan x="10" y="2986">  │ ├── punycode@1.4.1 </tspan>
<tspan x="10" y="3002">  │ ├── querystring-es3@0.2.1 </tspan>
<tspan x="10" y="3018">  │ ├── read-only-stream@2.0.0 </tspan>
<tspan x="10" y="3034">  │ ├─┬ readable-stream@2.2.9 </tspan>
<tspan x="10" y="3050">  │ │ ├── buffer-shims@1.0.0 </tspan>
<tspan x="10" y="3066">  │ │ ├── core-util-is@1.0.2 </tspan>
<tspan x="10" y="3082">  │ │ ├── process-nextick-args@1.0.7 </tspan>
<tspan x="10" y="3098">  │ │ ├── string_decoder@1.0.0 </tspan>
<tspan x="10" y="3114">  │ │ └── util-deprecate@1.0.2 </tspan>
<tspan x="10" y="3130">  │ ├─┬ resolve@1.3.3 </tspan>
<tspan x="10" y="3146">  │ │ └── path-parse@1.0.5 </tspan>
<tspan x="10" y="3162">  │ ├─┬ shasum@1.0.2 </tspan>
<tspan x="10" y="3178">  │ │ ├── json-stable-stringify@0.0.1 </tspan>
<tspan x="10" y="3194">  │ │ └── sha.js@2.4.8 </tspan>
<tspan x="10" y="3210">  │ ├─┬ shell-quote@1.6.1 </tspan>
<tspan x="10" y="3226">  │ │ ├── array-filter@0.0.1 </tspan>
<tspan x="10" y="3242">  │ │ ├── array-map@0.0.0 </tspan>
<tspan x="10" y="3258">  │ │ ├── array-reduce@0.0.0 </tspan>
<tspan x="10" y="3274">  │ │ └── jsonify@0.0.0 </tspan>
<tspan x="10" y="3290">  │ ├── stream-browserify@2.0.1 </tspan>
<tspan x="10" y="3306">  │ ├─┬ stream-http@2.7.0 </tspan>
<tspan x="10" y="3322">  │ │ ├── builtin-status-codes@3.0.0 </tspan>
<tspan x="10" y="3338">  │ │ └── to-arraybuffer@1.0.1 </tspan>
<tspan x="10" y="3354">  │ ├── string_decoder@0.10.31 </tspan>
<tspan x="10" y="3370">  │ ├─┬ subarg@1.0.0 </tspan>
<tspan x="10" y="3386">  │ │ └── minimist@1.2.0 </tspan>
<tspan x="10" y="3402">  │ ├─┬ syntax-error@1.3.0 </tspan>
<tspan x="10" y="3418">  │ │ └── acorn@4.0.11 </tspan>
<tspan x="10" y="3434">  │ ├── through2@2.0.3 </tspan>
<tspan x="10" y="3450">  │ ├── timers-browserify@1.4.2 </tspan>
<tspan x="10" y="3466">  │ ├── tty-browserify@0.0.0 </tspan>
<tspan x="10" y="3482">  │ ├─┬ url@0.11.0 </tspan>
<tspan x="10" y="3498">  │ │ ├── punycode@1.3.2 </tspan>
<tspan x="10" y="3514">  │ │ └── querystring@0.2.0 </tspan>
<tspan x="10" y="3530">  │ ├─┬ util@0.10.3 </tspan>
<tspan x="10" y="3546">  │ │ └── inherits@2.0.1 </tspan>
<tspan x="10" y="3562">  │ ├─┬ vm-browserify@0.0.4 </tspan>
<tspan x="10" y="3578">  │ │ └── indexof@0.0.1 </tspan>
<tspan x="10" y="3594">  │ └── xtend@4.0.1 </tspan>
<tspan x="10" y="3610">  ├─┬ commander@2.9.0 </tspan>
<tspan x="10" y="3626">  │ └── graceful-readlink@1.0.1 </tspan>
<tspan x="10" y="3642">  ├── extendscript.prototypes@0.0.8 </tspan>
<tspan x="10" y="3658">  └─┬ prependify@1.3.0 </tspan>
<tspan x="10" y="3674">    └─┬ through2@0.6.5 </tspan>
<tspan x="10" y="3690">      └─┬ readable-stream@1.0.34 </tspan>
<tspan x="10" y="3706">        └── isarray@0.0.1</tspan>
</text>
</svg>
